<svg xmlns="http://www.w3.org/2000/svg" width="512" height="512" viewBox="0 0 512 512" version="1.1">
	<path d="M 202 84.983 C 164.325 85.267, 132.934 85.866, 132.243 86.313 C 131.551 86.761, 130.339 88.378, 129.548 89.907 C 128.113 92.682, 128.089 92.688, 114.805 93.303 C 106.585 93.683, 99.671 94.548, 96.714 95.565 C 89.830 97.935, 81.766 105.699, 77.774 113.803 L 74.500 120.450 74.167 142.750 C 73.860 163.223, 74.004 165.555, 75.917 171.219 C 77.062 174.612, 78 179.241, 78 181.506 C 78 184.910, 78.513 186.003, 80.962 187.814 C 84.717 190.590, 87 197.926, 87 207.214 C 87 215.304, 85.058 220.647, 81.646 221.945 C 77.896 223.370, 77.621 224.761, 80.428 228.097 C 81.843 229.778, 82.999 231.681, 82.999 232.327 C 82.998 232.972, 81.862 238.188, 80.473 243.919 C 74.988 266.561, 73.273 285.288, 74.927 304.500 C 75.938 316.240, 76.813 321.299, 81.104 340.222 C 82.337 345.663, 82.293 346.059, 80.201 348.287 C 77.102 351.585, 77.457 353.747, 81.486 356.124 C 85.989 358.781, 87.442 363.800, 86.661 374 C 85.822 384.956, 82.959 392, 79.345 392 C 78.426 392, 78 393.368, 78 396.318 C 78 398.694, 77.317 402.937, 76.482 405.748 C 75.211 410.027, 75.098 414.242, 75.786 431.679 C 76.553 451.112, 76.783 452.881, 79.234 458.218 C 82.443 465.205, 89.743 473.213, 95.400 475.952 C 99.569 477.970, 100.982 477.989, 260.052 478.244 L 420.500 478.500 424.443 476.431 C 432.272 472.325, 431.886 474.940, 432.116 424.500 L 432.321 379.500 427.170 370.558 C 424.337 365.640, 421.771 360.240, 421.468 358.558 C 421.165 356.876, 421.049 321.480, 421.209 279.899 L 421.500 204.298 427.269 193.186 L 433.038 182.073 432.356 136.964 C 431.704 93.889, 431.583 91.740, 429.669 89.306 C 425.395 83.872, 427.190 83.981, 345.782 84.233 C 304.377 84.361, 239.675 84.699, 202 84.983 M 332.630 99.250 C 332.299 100.487, 332.021 110.298, 332.014 121.050 C 332.004 134.906, 331.651 140.949, 330.800 141.800 C 328.904 143.696, 325.213 143.246, 324.510 141.032 C 324.167 139.950, 324.024 131.192, 324.193 121.570 C 324.460 106.329, 324.286 103.862, 322.838 102.411 C 321.311 100.883, 314.448 100.759, 238.838 100.905 C 160.886 101.055, 156.367 101.160, 154 102.886 C 152.625 103.889, 150.745 106.012, 149.823 107.605 C 148.273 110.279, 148.126 123.458, 147.895 280 C 147.620 466.757, 147.185 453.271, 153.607 457.478 C 156.153 459.146, 161.306 459.242, 238.894 459.069 C 312.952 458.903, 321.653 458.719, 323.235 457.287 C 324.816 455.857, 325 453.479, 325 434.545 C 325 413.600, 325.386 410.971, 328.450 411.015 C 332.273 411.071, 332.487 412.304, 333 437.212 C 333.483 460.667, 333.569 461.500, 335.500 461.500 C 337.440 461.500, 337.520 460.612, 338.163 432 C 338.528 415.775, 338.753 334.507, 338.663 251.404 C 338.492 93.133, 338.597 97, 334.494 97 C 333.801 97, 332.962 98.013, 332.630 99.250 M 132.306 100.645 C 131.846 101.845, 132.762 397.345, 133.428 462.500 C 133.493 468.809, 133.697 469.500, 135.500 469.500 C 137.492 469.500, 137.501 468.736, 137.793 289.500 C 137.954 190.500, 137.809 107.138, 137.471 104.250 C 136.963 99.912, 136.516 99, 134.897 99 C 133.819 99, 132.653 99.740, 132.306 100.645 M 348.260 104.187 C 347.016 105.686, 346.137 451.794, 347.372 453.793 C 349.447 457.150, 370.376 455.912, 378.676 451.943 C 385.630 448.617, 396.820 436.967, 401.238 428.455 C 407.317 416.740, 409.416 407.561, 409.461 392.500 C 409.516 374.270, 407.306 364.805, 394.173 327 C 387.295 307.200, 385.608 297.861, 385.686 280 C 385.776 259.469, 388.315 249.025, 400.761 218 C 407.707 200.685, 409.673 193.830, 411.024 182.211 C 413.898 157.493, 405.110 129.893, 389.755 115.407 C 379.573 105.802, 374.256 103.583, 360.440 103.169 C 352.055 102.917, 349.109 103.164, 348.260 104.187 M 108.305 108.029 C 100.640 108.835, 97.204 110.592, 92.605 116.057 C 88.415 121.037, 87.839 125.397, 88.182 149.505 C 88.585 177.740, 87.646 176.175, 103.932 175.780 L 115.500 175.500 116 148 C 116.504 120.275, 116.802 118.069, 120.445 115.045 C 121.300 114.336, 122 112.980, 122 112.033 C 122 109.948, 118.888 106.948, 116.921 107.136 C 116.140 107.210, 112.262 107.612, 108.305 108.029 M 179.432 112.010 L 176.500 112.520 176.264 274.510 C 176.116 375.664, 176.384 437.063, 176.978 438 C 177.812 439.315, 186.225 439.455, 245.215 439.133 C 288.246 438.898, 312.951 438.403, 313.750 437.760 C 314.724 436.977, 315 423.953, 315 378.756 L 315 320.758 319.964 312.129 C 326.244 301.214, 329.593 292.277, 331.498 281.352 C 335.315 259.461, 331.066 240.790, 319.757 229.767 L 314.902 225.034 314.974 170.240 C 315.031 127.327, 314.771 115.079, 313.774 113.750 C 312.602 112.189, 307.271 112.030, 247.432 111.776 C 211.645 111.624, 181.045 111.729, 179.432 112.010 M 184.035 120.934 C 182.697 123.436, 182.584 425.776, 183.921 429.291 C 184.575 431.013, 185.803 431.845, 188.171 432.172 C 190.002 432.424, 217.375 432.377, 249 432.066 L 306.500 431.500 306.759 381.059 C 306.902 353.317, 306.677 330.297, 306.259 329.903 C 305.143 328.851, 279.616 345.970, 273.849 351.638 C 266.860 358.507, 262.900 365.070, 262.140 371.043 C 261.788 373.807, 261.050 376.165, 260.500 376.284 C 259.950 376.403, 258.448 373.125, 257.162 369 C 252.026 352.526, 248.973 348.470, 234.818 339.313 C 230.866 336.757, 224.804 332.266, 221.346 329.333 C 217.889 326.400, 214.822 324, 214.530 324 C 214.239 324, 213.993 343.462, 213.985 367.250 C 213.976 391.038, 213.585 411.107, 213.115 411.848 C 212.645 412.590, 211.414 413.034, 210.380 412.835 C 208.579 412.489, 208.479 410.435, 208 363.987 L 207.500 315.500 202.720 306.500 C 191.502 285.377, 188.415 263.745, 194.157 246.500 C 196.373 239.846, 200.633 232.633, 204.481 229.018 L 207 226.651 207 180.760 C 207 151.038, 207.365 134.187, 208.035 132.934 C 209.404 130.377, 212.695 130.463, 213.524 133.077 C 213.887 134.219, 214.038 154.439, 213.860 178.011 C 213.682 201.583, 213.775 221.109, 214.068 221.402 C 214.361 221.694, 215.928 221.580, 217.550 221.148 C 220.324 220.409, 220.536 219.989, 221.104 214.115 C 221.912 205.755, 224.325 202.500, 229.716 202.500 L 233.691 202.500 233.619 194 C 233.519 182.260, 236.225 178.179, 241.153 182.638 C 242.461 183.822, 243.314 183.983, 244.231 183.217 C 244.929 182.635, 248.418 176.260, 251.983 169.051 C 256.476 159.968, 258.932 156.029, 259.983 156.222 C 260.818 156.375, 264.206 161.900, 267.513 168.500 C 276.380 186.195, 275.077 184.733, 279.527 181.983 L 283.300 179.652 285.237 182.044 C 286.919 184.122, 287.129 185.723, 286.837 194.219 C 286.652 199.600, 286.635 204.002, 286.800 204.001 C 286.964 204, 288.314 203.379, 289.800 202.620 C 295.580 199.667, 300.990 205.544, 300.996 214.782 C 300.999 219.340, 301.309 220.181, 303.250 220.915 C 304.488 221.383, 305.837 221.566, 306.250 221.324 C 306.663 221.081, 307 198.666, 307 171.512 C 307 127.964, 306.815 121.958, 305.429 120.571 C 304.035 119.178, 297.124 119, 244.464 119 C 186.767 119, 185.041 119.055, 184.035 120.934 M 257.236 177.750 C 256.190 179.262, 253.235 184.394, 250.668 189.154 C 245.038 199.592, 244.923 201.531, 249.076 216.110 C 253.635 232.117, 253.410 232.340, 241.707 223.444 C 236.321 219.350, 231.274 216, 230.492 216 C 228.223 216, 227 219.417, 227 225.756 L 227 231.643 221.983 233.911 C 211.053 238.851, 206.385 251.832, 210.526 265.774 C 213.798 276.794, 224.570 285.464, 238.858 288.577 C 248.563 290.691, 253 293.147, 256.296 298.230 C 260.675 304.983, 261.372 316.232, 257.446 316.794 C 255.755 317.036, 255.092 316.134, 253.688 311.679 C 250.319 300.992, 246.067 297.041, 237.907 297.015 C 232.280 296.997, 223.672 294.135, 218.048 290.413 C 214.547 288.096, 213.688 287.872, 212.902 289.066 C 211.469 291.242, 212.727 296.784, 216.290 304 C 219.866 311.241, 230.600 322.683, 245 334.604 C 251.323 339.838, 254.497 343.356, 257.394 348.341 L 261.288 355.041 263.776 351.271 C 267.545 345.561, 274.477 338.631, 285.001 330.051 C 302.954 315.414, 310.743 304.927, 311.728 294.066 C 312.017 290.880, 311.828 288.012, 311.308 287.690 C 310.788 287.369, 307.755 288.838, 304.567 290.955 C 298.372 295.070, 293.938 296.537, 284.695 297.532 C 277.195 298.340, 272.832 301.939, 270.433 309.297 C 268.199 316.146, 267.296 317.229, 264.895 315.944 C 262.547 314.687, 262.462 311.175, 264.605 303.959 C 267.063 295.680, 271.533 291.849, 282 289.049 C 300.434 284.118, 309.917 276.058, 313.530 262.250 C 316.840 249.598, 310.653 236.310, 299.960 233.106 L 296 231.920 296 226.571 C 296 219.542, 293.490 216, 289.724 217.716 C 286.172 219.334, 271.240 230.998, 265.595 236.563 C 259.213 242.855, 258.500 241.965, 258.500 227.701 C 258.500 215.368, 259.285 211, 261.500 211 C 263.251 211, 263.765 212.977, 264.751 223.496 L 265.500 231.492 269.239 224.372 C 273.787 215.709, 276.406 206.128, 275.436 201.705 C 274.699 198.345, 261.068 175, 259.844 175 C 259.455 175, 258.281 176.238, 257.236 177.750 M 255.608 187.364 C 251.157 196.771, 250.336 210.056, 254.159 210.792 C 255.282 211.008, 256.237 209.565, 257.466 205.798 C 260.539 196.374, 260.501 196.351, 265.503 210.750 C 266.859 214.652, 270 209.525, 270 203.410 C 270 196.122, 263.088 182, 259.522 182 C 258.765 182, 257.003 184.414, 255.608 187.364 M 98 190 C 96.212 191.788, 96 193.333, 96 204.567 C 96 218.966, 95.083 218.179, 106.170 213.296 C 114.068 209.818, 116.524 206.961, 116.404 201.397 C 116.290 196.163, 113.622 192.716, 107.500 189.890 C 102.358 187.517, 100.461 187.539, 98 190 M 107.416 226.412 C 102.197 228.046, 97.646 230.736, 96.210 233.036 C 95.590 234.027, 94.185 238.363, 93.085 242.669 C 85.968 270.562, 85.217 301.035, 90.972 328.500 C 94.269 344.237, 94.724 345.112, 101.307 348.402 C 104.500 349.998, 109.299 351.515, 111.971 351.771 C 116.479 352.204, 116.854 352.067, 117.165 349.869 C 117.349 348.566, 117.275 320.371, 117 287.213 C 116.429 218.313, 117.221 223.343, 107.416 226.412 M 231.611 229.572 C 230.760 231.789, 232.044 233.720, 238.548 240 C 245.481 246.694, 251.310 255.359, 253.558 262.313 C 256.616 271.768, 260.008 272.495, 259.988 263.691 C 259.973 257.055, 257.864 249.151, 254.642 243.652 C 248.799 233.682, 233.599 224.390, 231.611 229.572 M 282.480 231.878 C 276.668 235.235, 269.996 242.118, 267.189 247.651 C 264.681 252.595, 262.719 261.521, 263.158 265.992 C 263.604 270.549, 266.494 271.320, 268.138 267.321 C 273.231 254.938, 275.217 251.798, 283.450 243.110 C 289.878 236.327, 292.050 233.371, 291.816 231.724 C 291.356 228.486, 288.262 228.537, 282.480 231.878 M 296.474 244.862 C 291.934 247.630, 279.123 261.716, 273.290 270.353 C 268.307 277.733, 263.930 288.263, 265.283 289.617 C 265.636 289.969, 268.273 288.737, 271.143 286.879 C 274.014 285.020, 281.099 281.025, 286.887 278 C 294.872 273.827, 298.207 271.456, 300.706 268.172 C 303.470 264.541, 305.179 259, 303.534 259 C 303.278 259, 300.049 260.660, 296.359 262.688 C 292.669 264.717, 290.032 265.729, 290.499 264.938 C 290.966 264.147, 293.005 261.025, 295.029 258 C 302.071 247.478, 302.781 241.017, 296.474 244.862 M 222.452 246.750 C 223.385 250.580, 227.306 256.323, 232.015 260.753 C 234.205 262.814, 235.997 264.846, 235.998 265.269 C 236.001 266.426, 231.105 265.016, 225.651 262.290 C 222.983 260.956, 220.599 260.068, 220.352 260.315 C 219.379 261.287, 221.295 265.902, 224.067 269.266 C 225.926 271.520, 230.715 274.715, 237.244 278.054 C 242.885 280.939, 249.381 284.582, 251.680 286.150 C 255.885 289.017, 258 289.697, 258 288.182 C 258 287.731, 257.274 284.919, 256.388 281.932 C 252.340 268.297, 244.228 257.642, 231.328 249.013 C 227.206 246.256, 223.371 244, 222.808 244 C 222.194 244, 222.052 245.104, 222.452 246.750 M 232.442 304.544 L 233.107 308.088 227.925 305.462 L 222.742 302.836 223.437 305.607 C 224.644 310.414, 227.862 313.822, 239.340 322.448 C 245.478 327.061, 252.075 332.880, 254 335.380 C 260.663 344.031, 262.107 339.840, 256.496 328.133 C 252.129 319.019, 245.319 310.261, 238.526 305.020 C 235.660 302.809, 232.969 301, 232.546 301 C 232.123 301, 232.077 302.595, 232.442 304.544 M 285.478 305.219 C 275.367 313.402, 266.062 326.439, 264.399 334.753 C 264.042 336.539, 264.127 338, 264.587 338 C 265.048 338, 267.241 336.221, 269.462 334.046 C 271.683 331.872, 278.207 326.585, 283.959 322.296 C 296.959 312.607, 305.364 301.658, 296.143 306.426 C 291.371 308.894, 289.945 308.524, 290.650 305 C 291.414 301.182, 290.414 301.224, 285.478 305.219 M 234 353.752 C 231.039 355.231, 230.451 356.090, 230.185 359.326 C 229.759 364.503, 231.676 367.085, 240.034 372.591 C 248.817 378.378, 251.118 382.195, 254.444 396.500 C 258.110 412.269, 259.644 416, 262.460 416 C 263.722 416, 265.301 415.342, 265.969 414.537 C 266.637 413.733, 268.276 406.717, 269.613 398.947 C 270.949 391.176, 272.668 383.622, 273.432 382.159 C 275.445 378.307, 279.770 374.580, 285.620 371.657 C 291.482 368.727, 296 363.897, 296 360.558 C 296 359.300, 295.067 357.084, 293.927 355.635 C 289.735 350.305, 278.966 352.868, 271.682 360.930 C 268.186 364.800, 266.930 368, 268.908 368 C 269.407 368, 272.090 366.820, 274.869 365.378 C 279.673 362.886, 283 362.718, 283 364.969 C 283 365.536, 282.627 366, 282.171 366 C 281.716 366, 279.177 367.434, 276.530 369.188 C 270.971 372.870, 266.581 379.232, 264.373 386.804 C 263.522 389.722, 262.388 391.963, 261.852 391.784 C 261.316 391.605, 259.892 388.543, 258.689 384.980 C 255.923 376.791, 252.489 372.299, 246.092 368.500 C 237.543 363.423, 240.598 361.128, 250.250 365.376 C 253.832 366.953, 254 366.943, 254 365.163 C 254 361.845, 248.444 355.395, 244.082 353.649 C 238.940 351.592, 238.310 351.598, 234 353.752 M 96 373.233 C 96 382.296, 96.386 386.986, 97.200 387.800 C 100.293 390.893, 110.725 387.707, 114.905 382.393 C 117.415 379.202, 117.663 373.392, 115.426 370.198 C 113.958 368.102, 103.331 362.141, 98.250 360.564 L 96 359.865 96 373.233 M 96.500 400.844 C 89.831 401.938, 89.002 404.831, 89.007 427 C 89.009 437.175, 89.449 447.075, 89.985 449 C 91.307 453.752, 96.339 459.622, 101.227 462.116 C 103.656 463.355, 108.123 464.390, 112.452 464.718 C 122.827 465.502, 126.803 462.846, 121.898 458.407 C 117.284 454.232, 117.001 452.441, 116.985 427.300 C 116.976 414.210, 116.549 402.835, 116.035 402.022 C 114.994 400.377, 103.551 399.686, 96.500 400.844" stroke="none" fill="black" fill-rule="evenodd"/>
</svg>